PathFileType	4	(X/Y/Z)	/home/nbianco/projects/addbio/data/HamnerRunning2013/Processed/subject03//results/MarkerData/run400.trc
DataRate	CameraRate	NumFrames	NumMarkers	Units	OrigDataRate	OrigDataStartFrame	OrigNumFrames
100	100	8	45	m	100	24	196
Frame#	Time	C7			CLAV			LACR			LASI			LCAL			LFAradius			LFAsuperior			LFAulna			LLEL			LMEL			LMT5			LPSH			LPSI			LTB1			LTB2			LTB3			LTH1			LTH2			LTH3			LTOE			LUA1			LUA2			LUA3			RACR			RASI			RCAL			RFAradius			RFAsuperior			RFAulna			RLEL			RLMAL			RMEL			RMMAL			RMT5			RPSI			RTB1			RTB2			RTB3			RTH1			RTH2			RTH3			RTOE			RUA1			RUA2			RUA3		
		X1	Y1	Z1	X2	Y2	Z2	X3	Y3	Z3	X4	Y4	Z4	X5	Y5	Z5	X6	Y6	Z6	X7	Y7	Z7	X8	Y8	Z8	X9	Y9	Z9	X10	Y10	Z10	X11	Y11	Z11	X12	Y12	Z12	X13	Y13	Z13	X14	Y14	Z14	X15	Y15	Z15	X16	Y16	Z16	X17	Y17	Z17	X18	Y18	Z18	X19	Y19	Z19	X20	Y20	Z20	X21	Y21	Z21	X22	Y22	Z22	X23	Y23	Z23	X24	Y24	Z24	X25	Y25	Z25	X26	Y26	Z26	X27	Y27	Z27	X28	Y28	Z28	X29	Y29	Z29	X30	Y30	Z30	X31	Y31	Z31	X32	Y32	Z32	X33	Y33	Z33	X34	Y34	Z34	X35	Y35	Z35	X36	Y36	Z36	X37	Y37	Z37	X38	Y38	Z38	X39	Y39	Z39	X40	Y40	Z40	X41	Y41	Z41	X42	Y42	Z42	X43	Y43	Z43	X44	Y44	Z44	X45	Y45	Z45

25	0.35	0.867304	1.60883	-0.329394	0.978569	1.52171	-0.325677	0.867164	1.5976	-0.486638	0.939305	1.09677	-0.433665	1.01779	0.163493	-0.369629	0.856796	1.31287	-0.523645	0.68359	1.28422	-0.532175	0.846565	1.2461	-0.533876	0.614057	1.35074	-0.54789	0.618675	1.34319	-0.456937	1.18512	0.122184	-0.450367	0.78404	1.57398	-0.467903	0.780611	1.14037	-0.370403	1.12793	0.507067	-0.431839	1.04924	0.40061	-0.456557	1.11616	0.314067	-0.415	0.899955	0.884988	-0.48057	1.02297	0.82783	-0.474031	1.02321	0.718018	-0.459377	1.24201	0.146976	-0.382364	0.744492	1.51521	-0.519044	0.680572	1.4613	-0.470605	0.648928	1.42555	-0.528222	0.933293	1.58089	-0.184585	0.942299	1.08706	-0.207033	0.311185	0.343708	-0.356626	1.01123	1.34353	-0.218457	0.915564	1.2385	-0.0795144	1.02922	1.27871	-0.222761	0.872899	1.26475	-0.0196965	0.345502	0.303489	-0.286949	0.803122	1.25534	-0.0858223	0.386152	0.299791	-0.360466	0.324037	0.181052	-0.268378	0.781153	1.13825	-0.279569	0.60195	0.465448	-0.270008	0.526521	0.456114	-0.235987	0.456923	0.350523	-0.28984	0.768721	0.850015	-0.167201	0.80983	0.762662	-0.202635	0.706109	0.695263	-0.208975	0.381463	0.130904	-0.332284	0.911675	1.43653	-0.088978	0.833195	1.38918	-0.0731454	0.851926	1.3324	-0.0364049
26	0.36	0.86735	1.61054	-0.331523	0.978558	1.52336	-0.327099	0.866992	1.59824	-0.488604	0.940237	1.09716	-0.432049	1.04161	0.154692	-0.363107	0.855482	1.31351	-0.523502	0.681907	1.28532	-0.529068	0.845031	1.24667	-0.53308	0.612197	1.35188	-0.544221	0.618451	1.34501	-0.453039	1.21102	0.118508	-0.44229	0.78396	1.57475	-0.469478	0.780835	1.14031	-0.369488	1.12581	0.501349	-0.431984	1.05595	0.389433	-0.454694	1.12901	0.308677	-0.410865	0.897279	0.883768	-0.480842	1.01816	0.821821	-0.475216	1.01493	0.711206	-0.462374	1.26623	0.148735	-0.374593	0.743946	1.51646	-0.519028	0.681101	1.46278	-0.468576	0.64786	1.42715	-0.52538	0.933489	1.58254	-0.185915	0.942473	1.09033	-0.205044	0.298678	0.368377	-0.357698	1.00954	1.34271	-0.218684	0.912189	1.24048	-0.0787374	1.0262	1.27754	-0.222613	0.869778	1.26772	-0.0190083	0.330768	0.328818	-0.286027	0.800065	1.25891	-0.0852597	0.372291	0.320509	-0.359266	0.302766	0.208856	-0.263352	0.781594	1.13938	-0.278616	0.599769	0.470565	-0.269745	0.522954	0.468129	-0.236321	0.445829	0.367243	-0.28858	0.774288	0.849328	-0.16732	0.815359	0.76342	-0.204825	0.712278	0.695084	-0.209096	0.358717	0.154771	-0.324938	0.910681	1.43857	-0.0897399	0.831435	1.39226	-0.0737816	0.849725	1.3357	-0.036362
27	0.37	0.867532	1.61144	-0.333703	0.978507	1.52379	-0.328347	0.867438	1.59768	-0.490666	0.941048	1.0971	-0.430798	1.05874	0.148388	-0.356244	0.85546	1.31224	-0.52369	0.681621	1.28453	-0.527551	0.844858	1.24538	-0.532749	0.611769	1.35105	-0.542376	0.619051	1.34483	-0.450999	1.22936	0.116136	-0.434679	0.784279	1.57442	-0.471655	0.780942	1.13906	-0.36833	1.12223	0.495838	-0.431633	1.05881	0.38048	-0.451719	1.13719	0.30451	-0.407064	0.895872	0.882895	-0.482319	1.01323	0.815045	-0.47725	1.00606	0.70385	-0.464658	1.2832	0.15104	-0.367732	0.74422	1.51611	-0.519928	0.681991	1.46252	-0.46799	0.647816	1.42682	-0.52424	0.933839	1.58306	-0.187334	0.942816	1.09223	-0.203461	0.289943	0.393088	-0.358708	1.0085	1.33931	-0.218227	0.907808	1.24116	-0.0775544	1.02354	1.27373	-0.221115	0.865311	1.27002	-0.0184059	0.319751	0.354684	-0.284611	0.796217	1.26168	-0.0851284	0.361663	0.341143	-0.357668	0.285094	0.238165	-0.257189	0.782148	1.13895	-0.277473	0.599996	0.474385	-0.269921	0.522495	0.479242	-0.236717	0.437816	0.383772	-0.287182	0.780339	0.847097	-0.168024	0.821827	0.762553	-0.206516	0.719597	0.693102	-0.209563	0.339255	0.178935	-0.315389	0.908844	1.43986	-0.0902693	0.828595	1.39467	-0.07483	0.846184	1.33837	-0.0365098
28	0.38	0.867718	1.61127	-0.33574	0.978392	1.52294	-0.329358	0.868415	1.59592	-0.49266	0.941614	1.09671	-0.429967	1.06859	0.143641	-0.349194	0.8567	1.30915	-0.524236	0.682676	1.28179	-0.527627	0.846017	1.24227	-0.532903	0.612748	1.34824	-0.542395	0.620382	1.3426	-0.450883	1.23966	0.113961	-0.427791	0.784919	1.57302	-0.474282	0.780931	1.13695	-0.367165	1.11756	0.490748	-0.431082	1.05776	0.373232	-0.447601	1.14061	0.300929	-0.403929	0.894827	0.881435	-0.484387	1.00804	0.807719	-0.480184	0.99743	0.696656	-0.46575	1.29274	0.152309	-0.36192	0.745199	1.5141	-0.521774	0.683097	1.46063	-0.468897	0.648759	1.4245	-0.524832	0.934056	1.58258	-0.188727	0.943352	1.0925	-0.202574	0.285625	0.417698	-0.35917	1.00788	1.33347	-0.217073	0.90246	1.24066	-0.076035	1.02109	1.26749	-0.218349	0.85967	1.27173	-0.0179996	0.313275	0.380496	-0.282699	0.791753	1.26374	-0.0854607	0.354568	0.361476	-0.355713	0.271976	0.268339	-0.25038	0.78277	1.13712	-0.276236	0.602717	0.476702	-0.270254	0.525519	0.488728	-0.237007	0.433453	0.399615	-0.285755	0.785917	0.843892	-0.168688	0.82851	0.760217	-0.207141	0.727745	0.689205	-0.210415	0.322947	0.203113	-0.304962	0.906209	1.44049	-0.0906214	0.824917	1.39649	-0.0761215	0.841535	1.34042	-0.0368838
29	0.39	0.867792	1.60983	-0.337555	0.978208	1.52086	-0.330079	0.869804	1.59296	-0.494557	0.941758	1.09594	-0.429557	1.07112	0.139471	-0.342413	0.859126	1.30435	-0.525232	0.684976	1.27711	-0.529177	0.848417	1.23742	-0.533535	0.615056	1.34348	-0.544245	0.622337	1.33829	-0.45265	1.24213	0.110635	-0.42158	0.785795	1.5705	-0.4772	0.780688	1.13421	-0.366141	1.11207	0.485789	-0.430203	1.05369	0.366854	-0.44303	1.13952	0.296981	-0.401057	0.89335	0.878688	-0.486471	1.00314	0.800269	-0.483825	0.990203	0.69018	-0.465836	1.29508	0.151065	-0.356889	0.746685	1.51044	-0.524417	0.684312	1.4571	-0.471249	0.650607	1.42016	-0.527091	0.933946	1.58123	-0.18995	0.943969	1.09106	-0.202299	0.285918	0.441765	-0.358771	1.00732	1.32538	-0.215163	0.896197	1.23907	-0.0741538	1.01862	1.25901	-0.214408	0.853017	1.27287	-0.0178318	0.311821	0.405458	-0.280446	0.786742	1.26513	-0.0861842	0.351232	0.381258	-0.35352	0.264238	0.298426	-0.243418	0.783154	1.13405	-0.275043	0.607871	0.477542	-0.270191	0.531894	0.496169	-0.236964	0.432961	0.414319	-0.284281	0.790925	0.839636	-0.169079	0.835213	0.756502	-0.206879	0.736572	0.683347	-0.211482	0.30996	0.227384	-0.295056	0.902863	1.44048	-0.0908443	0.82064	1.39772	-0.0775883	0.836019	1.34182	-0.0374644
30	0.4	0.867696	1.60706	-0.339118	0.977961	1.51761	-0.330486	0.871436	1.58884	-0.496356	0.941301	1.09443	-0.429581	1.06678	0.134939	-0.336744	0.862626	1.29796	-0.526701	0.688408	1.27055	-0.53203	0.851929	1.23092	-0.534596	0.618559	1.33682	-0.547777	0.624862	1.33193	-0.456152	1.23771	0.104847	-0.415699	0.78683	1.56673	-0.480237	0.780108	1.13087	-0.365324	1.10596	0.480405	-0.428393	1.04769	0.36075	-0.438998	1.13438	0.29189	-0.397764	0.891328	0.874643	-0.488056	0.999311	0.793252	-0.487638	0.985022	0.684535	-0.465226	1.29073	0.146489	-0.352048	0.748506	1.5052	-0.527641	0.685609	1.45181	-0.474893	0.653275	1.41383	-0.530852	0.933454	1.57904	-0.190903	0.944491	1.0881	-0.202306	0.290826	0.46465	-0.357462	1.00647	1.31519	-0.2124	0.889077	1.23651	-0.0718679	1.01581	1.24845	-0.209324	0.845498	1.27344	-0.0178489	0.315388	0.428758	-0.277996	0.781206	1.26585	-0.0871729	0.351852	0.400124	-0.351139	0.262212	0.327291	-0.236746	0.782982	1.12991	-0.274013	0.61537	0.477185	-0.269387	0.541214	0.501546	-0.236379	0.436274	0.427586	-0.28262	0.79579	0.834012	-0.169445	0.842189	0.75157	-0.20617	0.74605	0.675857	-0.212406	0.300924	0.251376	-0.286488	0.898891	1.43978	-0.0909185	0.815899	1.39824	-0.0792452	0.8298	1.34255	-0.0381922
31	0.41	0.867438	1.60305	-0.340367	0.977681	1.51329	-0.330607	0.873112	1.58362	-0.498002	0.940151	1.09173	-0.430042	1.05648	0.129359	-0.332962	0.867061	1.29	-0.528486	0.692883	1.2622	-0.536026	0.856427	1.22286	-0.536028	0.623107	1.32833	-0.552752	0.627985	1.32364	-0.461185	1.22761	0.0956757	-0.409915	0.787964	1.56158	-0.483245	0.77914	1.1268	-0.364743	1.09926	0.474166	-0.425338	1.04018	0.354715	-0.436134	1.12578	0.285327	-0.393988	0.889134	0.869798	-0.488601	0.99675	0.787134	-0.490571	0.981506	0.679405	-0.463945	1.28043	0.13817	-0.346819	0.750596	1.49846	-0.531277	0.687055	1.44472	-0.479602	0.656706	1.40562	-0.535878	0.932601	1.57593	-0.191536	0.94475	1.08391	-0.202396	0.300148	0.485746	-0.355393	1.00506	1.30305	-0.208696	0.881143	1.23298	-0.0691872	1.01234	1.236	-0.203092	0.837236	1.27335	-0.0179375	0.323506	0.449811	-0.275347	0.77517	1.26574	-0.0883303	0.356507	0.417662	-0.348501	0.26557	0.353851	-0.230678	0.782157	1.12484	-0.273232	0.625176	0.475977	-0.267902	0.553079	0.505116	-0.235118	0.443175	0.439287	-0.280621	0.800915	0.827063	-0.169985	0.849811	0.745696	-0.205231	0.75627	0.667321	-0.212883	0.29663	0.274244	-0.279363	0.894365	1.43832	-0.0907919	0.810729	1.39787	-0.0811102	0.822945	1.34253	-0.0389978
32	0.42	0.867084	1.59798	-0.341225	0.977422	1.50801	-0.330506	0.874704	1.57733	-0.499421	0.938421	1.08751	-0.430943	1.04104	0.122455	-0.331071	0.872319	1.28047	-0.530327	0.698334	1.25217	-0.541013	0.861826	1.2133	-0.537828	0.628597	1.31812	-0.558888	0.631802	1.31355	-0.467519	1.21237	0.0833946	-0.404583	0.789174	1.55507	-0.486173	0.777782	1.12172	-0.364364	1.09182	0.466804	-0.42166	1.03078	0.348536	-0.434492	1.11419	0.277197	-0.390565	0.88697	0.864575	-0.487744	0.994812	0.782006	-0.491175	0.978614	0.674299	-0.461965	1.26482	0.125909	-0.341019	0.752991	1.4903	-0.535252	0.688794	1.4359	-0.485152	0.660877	1.39572	-0.541897	0.931445	1.57175	-0.191826	0.944614	1.07875	-0.202661	0.313371	0.504662	-0.35273	1.00298	1.28914	-0.204018	0.872422	1.22843	-0.0661659	1.00798	1.22194	-0.195733	0.828317	1.2724	-0.0179949	0.335483	0.468339	-0.272385	0.768629	1.26462	-0.0895954	0.365114	0.433544	-0.345494	0.27355	0.37729	-0.225315	0.780838	1.11895	-0.272763	0.63729	0.474096	-0.265968	0.567257	0.507245	-0.233148	0.453435	0.449384	-0.278196	0.806437	0.81927	-0.17045	0.858293	0.739189	-0.203943	0.767431	0.658204	-0.21282	0.297647	0.295125	-0.273411	0.889363	1.43594	-0.0904626	0.805137	1.39645	-0.0831435	0.815498	1.34161	-0.0398281
